<?xml version="1.0" encoding="utf-8"?>
<!-- Generator: Adobe Illustrator 24.1.2, SVG Export Plug-In . SVG Version: 6.00 Build 0)  -->
<svg version="1.1"
	 id="svg3121" xmlns:cc="http://creativecommons.org/ns#" xmlns:dc="http://purl.org/dc/elements/1.1/" xmlns:inkscape="http://www.inkscape.org/namespaces/inkscape" xmlns:rdf="http://www.w3.org/1999/02/22-rdf-syntax-ns#" xmlns:sodipodi="http://sodipodi.sourceforge.net/DTD/sodipodi-0.dtd" xmlns:svg="http://www.w3.org/2000/svg"
	 xmlns="http://www.w3.org/2000/svg" xmlns:xlink="http://www.w3.org/1999/xlink" x="0px" y="0px" viewBox="0 0 500 500"
	 style="enable-background:new 0 0 500 500;" xml:space="preserve">
<style type="text/css">
	.st0{fill:#FFFFFF;}
</style>
<g>
	
		<sodipodi:namedview  bordercolor="#666666" borderopacity="1.0" id="base" inkscape:current-layer="layer1" inkscape:cx="-560.57896" inkscape:cy="289.70954" inkscape:document-units="mm" inkscape:pageopacity="0.0" inkscape:pageshadow="2" inkscape:window-height="1016" inkscape:window-maximized="1" inkscape:window-width="1920" inkscape:window-x="0" inkscape:window-y="0" inkscape:zoom="0.414" pagecolor="#ffffff" showgrid="false" units="px">
		</sodipodi:namedview>
	<path id="rect1349-8" inkscape:connector-curvature="0" class="st0" d="M191.3,0c-26.5,0.2-51.8,14.8-64.6,40.1L8.5,274.6
		c-18.1,36-3.7,79.6,32.3,97.7l234.8,118.1c36,18.1,79.6,3.7,97.8-32.2l118.2-234.5c18.1-36,3.7-79.6-32.3-97.7l-88.4-44.5v162.8
		v0.1l0,0C370.8,311.2,316.9,365,250,365c-67,0-120.9-53.8-120.9-120.7S183,123.5,250,123.5c14.1,0,27.7,2.4,40.3,6.8V40.9
		L224.5,7.8C213.8,2.5,202.4-0.1,191.3,0L191.3,0z M250.1,204.3c-22.3,0-40.3,17.9-40.3,40.2c0,22.3,18,40.2,40.3,40.2
		c22.3,0,40.3-17.9,40.3-40.2C290.4,222.3,272.5,204.3,250.1,204.3z"/>
</g>
</svg>
