<?xml version="1.0" encoding="utf-8"?>
<!-- Generator: Adobe Illustrator 24.1.2, SVG Export Plug-In . SVG Version: 6.00 Build 0)  -->
<svg version="1.1"
	 id="svg3121" xmlns:cc="http://creativecommons.org/ns#" xmlns:dc="http://purl.org/dc/elements/1.1/" xmlns:inkscape="http://www.inkscape.org/namespaces/inkscape" xmlns:rdf="http://www.w3.org/1999/02/22-rdf-syntax-ns#" xmlns:sodipodi="http://sodipodi.sourceforge.net/DTD/sodipodi-0.dtd" xmlns:svg="http://www.w3.org/2000/svg"
	 xmlns="http://www.w3.org/2000/svg" xmlns:xlink="http://www.w3.org/1999/xlink" x="0px" y="0px" viewBox="0 0 500 500"
	 style="enable-background:new 0 0 500 500;" xml:space="preserve">
<style type="text/css">
	.st0{fill:url(#rect1349-8_1_);}
</style>
<g>
	
		<sodipodi:namedview  bordercolor="#666666" borderopacity="1.0" id="base" inkscape:current-layer="layer1" inkscape:cx="-560.57896" inkscape:cy="289.70954" inkscape:document-units="mm" inkscape:pageopacity="0.0" inkscape:pageshadow="2" inkscape:window-height="1016" inkscape:window-maximized="1" inkscape:window-width="1920" inkscape:window-x="0" inkscape:window-y="0" inkscape:zoom="0.414" pagecolor="#ffffff" showgrid="false" units="px">
		</sodipodi:namedview>
	
		<linearGradient id="rect1349-8_1_" gradientUnits="userSpaceOnUse" x1="-107.2617" y1="671.1524" x2="-133.8982" y2="698.1676" gradientTransform="matrix(12.5345 0 0 -12.5345 1740.4023 8810.3486)">
		<stop  offset="0" style="stop-color:#640FFF"/>
		<stop  offset="1" style="stop-color:#2EC8FF"/>
	</linearGradient>
	<path id="rect1349-8" inkscape:connector-curvature="0" class="st0" d="M191.1,0c-26.5,0.2-51.9,14.8-64.7,40.2L7.8,275.3
		c-18.2,36.1-3.8,79.8,32.4,97.9l235.4,118.4c36.1,18.2,79.9,3.8,98.1-32.3l118.6-235.1c18.2-36.1,3.8-79.8-32.4-97.9l-88.6-44.6
		v163.2v0.1l0,0C371.1,312.1,317.1,366,250,366c-67.1,0-121.2-54-121.2-121s54.1-121,121.2-121c14.2,0,27.8,2.4,40.4,6.8V41
		l-66-33.2C213.7,2.5,202.3-0.1,191.1,0L191.1,0z M250.1,204.9c-22.4,0-40.4,18-40.4,40.3c0,22.4,18,40.3,40.4,40.3
		c22.4,0,40.4-18,40.4-40.3C290.5,222.9,272.5,204.9,250.1,204.9z"/>
</g>
</svg>
