<?xml version="1.0" encoding="utf-8"?>
<!-- Generator: Adobe Illustrator 24.1.2, SVG Export Plug-In . SVG Version: 6.00 Build 0)  -->
<svg version="1.1"
	 id="svg3121" xmlns:cc="http://creativecommons.org/ns#" xmlns:dc="http://purl.org/dc/elements/1.1/" xmlns:inkscape="http://www.inkscape.org/namespaces/inkscape" xmlns:rdf="http://www.w3.org/1999/02/22-rdf-syntax-ns#" xmlns:sodipodi="http://sodipodi.sourceforge.net/DTD/sodipodi-0.dtd" xmlns:svg="http://www.w3.org/2000/svg"
	 xmlns="http://www.w3.org/2000/svg" xmlns:xlink="http://www.w3.org/1999/xlink" x="0px" y="0px" viewBox="0 0 400 93.4"
	 style="enable-background:new 0 0 400 93.4;" xml:space="preserve">
<style type="text/css">
	.st0{enable-background:new    ;}
	.st1{fill:url(#SVGID_1_);}
	.st2{fill:url(#SVGID_2_);}
	.st3{fill:url(#SVGID_3_);}
	.st4{fill:url(#SVGID_4_);}
	.st5{fill:url(#SVGID_5_);}
	.st6{fill:url(#SVGID_6_);}
	.st7{fill:url(#SVGID_7_);}
	.st8{fill:url(#SVGID_8_);}
	.st9{fill:url(#rect1349-8_1_);}
</style>
<g>
	
		<sodipodi:namedview  bordercolor="#666666" borderopacity="1.0" id="base" inkscape:current-layer="layer1" inkscape:cx="-560.57896" inkscape:cy="289.70954" inkscape:document-units="mm" inkscape:pageopacity="0.0" inkscape:pageshadow="2" inkscape:window-height="1016" inkscape:window-maximized="1" inkscape:window-width="1920" inkscape:window-x="0" inkscape:window-y="0" inkscape:zoom="0.414" pagecolor="#ffffff" showgrid="false" units="px">
		</sodipodi:namedview>
	<g class="st0">
		<linearGradient id="SVGID_1_" gradientUnits="userSpaceOnUse" x1="-41.8196" y1="50.972" x2="419.2868" y2="38.206">
			<stop  offset="0" style="stop-color:#640FFF"/>
			<stop  offset="1" style="stop-color:#2EC8FF"/>
		</linearGradient>
		<path class="st1" d="M110.6,73.1c-0.9-0.8-1.3-2-1.3-3.6V23.3c0-1.5,0.4-2.7,1.3-3.6c0.9-0.8,2.1-1.3,3.6-1.3h15.7
			c9.2,0,16.3,2.4,21.3,7.3c5.1,4.9,7.6,11.7,7.6,20.6c0,8.9-2.5,15.8-7.6,20.7c-5.1,4.9-12.2,7.3-21.3,7.3h-15.7
			C112.7,74.4,111.5,73.9,110.6,73.1z M148.6,46.4c0-13.1-6.4-19.6-19.3-19.6h-9.8V66h9.8C142.2,66,148.6,59.5,148.6,46.4z"/>
		<linearGradient id="SVGID_2_" gradientUnits="userSpaceOnUse" x1="-41.5482" y1="60.7729" x2="419.5581" y2="48.0069">
			<stop  offset="0" style="stop-color:#640FFF"/>
			<stop  offset="1" style="stop-color:#2EC8FF"/>
		</linearGradient>
		<path class="st2" d="M193.2,35.7c0.8,0.7,1.2,1.7,1.2,3.1c0,1.4-0.3,2.5-1,3.2c-0.7,0.7-1.9,1.1-3.7,1.3l-2.4,0.2
			c-3.1,0.3-5.4,1.4-6.9,3.2c-1.5,1.8-2.2,4-2.2,6.7v16.6c0,1.5-0.5,2.7-1.4,3.5c-1,0.8-2.1,1.2-3.6,1.2c-1.4,0-2.6-0.4-3.5-1.2
			c-0.9-0.8-1.4-2-1.4-3.5V39.4c0-1.5,0.5-2.6,1.4-3.4c0.9-0.8,2.1-1.2,3.5-1.2c1.4,0,2.5,0.4,3.3,1.2c0.8,0.8,1.3,1.9,1.3,3.3v3.2
			c1-2.3,2.5-4.1,4.5-5.4c2-1.3,4.2-2,6.6-2.1l1.1-0.1C191.3,34.7,192.4,35,193.2,35.7z"/>
		<linearGradient id="SVGID_3_" gradientUnits="userSpaceOnUse" x1="-41.5151" y1="61.9718" x2="419.5913" y2="49.2058">
			<stop  offset="0" style="stop-color:#640FFF"/>
			<stop  offset="1" style="stop-color:#2EC8FF"/>
		</linearGradient>
		<path class="st3" d="M227.4,38.7c2.6,2.7,3.9,6.7,3.9,12.2v19.3c0,1.4-0.4,2.6-1.3,3.4c-0.8,0.8-2,1.2-3.5,1.2
			c-1.4,0-2.5-0.4-3.4-1.3c-0.9-0.8-1.3-2-1.3-3.3v-1.7c-0.9,2.1-2.3,3.7-4.2,4.8c-1.9,1.2-4.2,1.7-6.7,1.7c-2.6,0-4.9-0.5-7.1-1.6
			c-2.1-1.1-3.8-2.5-5-4.4c-1.2-1.8-1.8-3.9-1.8-6.2c0-2.9,0.7-5.1,2.2-6.7c1.5-1.6,3.8-2.8,7.1-3.6c3.3-0.7,7.8-1.1,13.6-1.1h2
			v-1.8c0-2.6-0.6-4.5-1.7-5.7s-2.9-1.8-5.4-1.8c-1.5,0-3.1,0.2-4.7,0.7c-1.6,0.5-3.5,1.1-5.6,1.9c-1.4,0.7-2.4,1-3,1
			c-1,0-1.7-0.3-2.3-1c-0.6-0.7-0.9-1.6-0.9-2.7c0-0.9,0.2-1.7,0.7-2.3c0.4-0.7,1.2-1.3,2.3-1.9c1.9-1,4.1-1.8,6.6-2.4
			c2.6-0.6,5.1-0.9,7.6-0.9C220.7,34.7,224.7,36,227.4,38.7z M219.4,65.2c1.7-1.8,2.5-4.1,2.5-6.9v-1.7h-1.4c-3.5,0-6.3,0.2-8.3,0.5
			c-2,0.3-3.4,0.9-4.2,1.7c-0.8,0.8-1.3,1.9-1.3,3.2c0,1.7,0.6,3.1,1.8,4.2c1.2,1.1,2.7,1.6,4.4,1.6C215.5,67.9,217.7,67,219.4,65.2
			z"/>
		<linearGradient id="SVGID_4_" gradientUnits="userSpaceOnUse" x1="-41.7138" y1="54.7931" x2="419.3926" y2="42.0272">
			<stop  offset="0" style="stop-color:#640FFF"/>
			<stop  offset="1" style="stop-color:#2EC8FF"/>
		</linearGradient>
		<path class="st4" d="M255.7,28.1c-1.1,1.3-1.7,3.2-1.7,5.7v1.8h6.7c3,0,4.4,1.2,4.4,3.7c0,2.5-1.5,3.7-4.4,3.7H254v27
			c0,1.5-0.5,2.7-1.4,3.5c-0.9,0.8-2.1,1.2-3.5,1.2s-2.6-0.4-3.6-1.2c-1-0.8-1.4-2-1.4-3.5v-27h-4c-3,0-4.4-1.2-4.4-3.7
			c0-2.5,1.5-3.7,4.4-3.7h4v-0.6c0-5,1.3-8.9,3.9-11.7c2.6-2.8,6.3-4.4,11.1-4.8l2.1-0.2c2.1-0.2,3.6,0.1,4.5,0.7
			c0.9,0.6,1.3,1.5,1.3,2.8c0,2.3-1.3,3.5-3.9,3.8l-2.1,0.2C258.5,26,256.8,26.8,255.7,28.1z"/>
		<linearGradient id="SVGID_5_" gradientUnits="userSpaceOnUse" x1="-41.6177" y1="58.2651" x2="419.4887" y2="45.4992">
			<stop  offset="0" style="stop-color:#640FFF"/>
			<stop  offset="1" style="stop-color:#2EC8FF"/>
		</linearGradient>
		<path class="st5" d="M296.2,71c0,1.3-0.5,2.2-1.5,2.9c-1,0.7-2.5,0.9-4.4,0.8l-2.1-0.2c-8.9-0.6-13.3-5.4-13.3-14.3V43.1h-4
			c-1.4,0-2.5-0.3-3.3-1c-0.8-0.6-1.2-1.6-1.2-2.8s0.4-2.1,1.2-2.8c0.8-0.6,1.9-1,3.3-1h4v-7.3c0-1.4,0.4-2.6,1.3-3.4
			c0.9-0.8,2.1-1.3,3.6-1.3c1.5,0,2.7,0.4,3.6,1.3c0.9,0.8,1.3,2,1.3,3.4v7.3h6.7c1.4,0,2.5,0.3,3.3,1c0.8,0.6,1.2,1.6,1.2,2.8
			s-0.4,2.1-1.2,2.8c-0.8,0.6-1.9,1-3.3,1h-6.7v18c0,3.9,1.8,6,5.4,6.3l2.1,0.2C294.9,67.6,296.2,68.8,296.2,71z"/>
		<linearGradient id="SVGID_6_" gradientUnits="userSpaceOnUse" x1="-41.4367" y1="64.8023" x2="419.6697" y2="52.0363">
			<stop  offset="0" style="stop-color:#640FFF"/>
			<stop  offset="1" style="stop-color:#2EC8FF"/>
		</linearGradient>
		<path class="st6" d="M334.2,64.8c0.6,0.7,0.8,1.6,0.8,2.8c0,1.6-1,3-2.9,4.1c-1.8,1-3.8,1.8-6.1,2.4c-2.3,0.6-4.4,0.9-6.5,0.9
			c-6.2,0-11.2-1.8-14.8-5.4c-3.7-3.6-5.5-8.5-5.5-14.7c0-4,0.8-7.5,2.4-10.5c1.6-3.1,3.8-5.4,6.7-7.1c2.9-1.7,6.2-2.5,9.8-2.5
			c3.5,0,6.5,0.8,9.1,2.3c2.6,1.5,4.6,3.7,6,6.5c1.4,2.8,2.1,6.1,2.1,9.9c0,2.3-1,3.4-3,3.4H309c0.3,3.6,1.3,6.3,3.1,8
			c1.7,1.7,4.3,2.6,7.6,2.6c1.7,0,3.2-0.2,4.5-0.6c1.3-0.4,2.8-1,4.4-1.7c1.6-0.8,2.7-1.3,3.5-1.3C333,63.7,333.7,64.1,334.2,64.8z
			 M311.9,44.2c-1.6,1.7-2.6,4.1-2.9,7.3h17.9c-0.1-3.2-0.9-5.7-2.4-7.3c-1.5-1.7-3.5-2.5-6.2-2.5C315.6,41.6,313.5,42.5,311.9,44.2
			z"/>
		<linearGradient id="SVGID_7_" gradientUnits="userSpaceOnUse" x1="-41.4141" y1="65.62" x2="419.6923" y2="52.8541">
			<stop  offset="0" style="stop-color:#640FFF"/>
			<stop  offset="1" style="stop-color:#2EC8FF"/>
		</linearGradient>
		<path class="st7" d="M368.4,35.7c0.8,0.7,1.2,1.7,1.2,3.1c0,1.4-0.3,2.5-1,3.2c-0.7,0.7-1.9,1.1-3.7,1.3l-2.4,0.2
			c-3.1,0.3-5.4,1.4-6.9,3.2c-1.5,1.8-2.2,4-2.2,6.7v16.6c0,1.5-0.5,2.7-1.4,3.5c-1,0.8-2.1,1.2-3.6,1.2c-1.4,0-2.6-0.4-3.5-1.2
			c-0.9-0.8-1.4-2-1.4-3.5V39.4c0-1.5,0.5-2.6,1.4-3.4c0.9-0.8,2.1-1.2,3.5-1.2s2.5,0.4,3.3,1.2c0.8,0.8,1.3,1.9,1.3,3.3v3.2
			c1-2.3,2.5-4.1,4.5-5.4c2-1.3,4.2-2,6.6-2.1l1.1-0.1C366.5,34.7,367.6,35,368.4,35.7z"/>
		<linearGradient id="SVGID_8_" gradientUnits="userSpaceOnUse" x1="-41.3908" y1="66.4609" x2="419.7156" y2="53.695">
			<stop  offset="0" style="stop-color:#640FFF"/>
			<stop  offset="1" style="stop-color:#2EC8FF"/>
		</linearGradient>
		<path class="st8" d="M398.8,35.7c0.8,0.7,1.2,1.7,1.2,3.1c0,1.4-0.3,2.5-1,3.2c-0.7,0.7-1.9,1.1-3.7,1.3l-2.4,0.2
			c-3.1,0.3-5.4,1.4-6.9,3.2c-1.5,1.8-2.2,4-2.2,6.7v16.6c0,1.5-0.5,2.7-1.4,3.5c-1,0.8-2.1,1.2-3.6,1.2s-2.6-0.4-3.5-1.2
			c-0.9-0.8-1.4-2-1.4-3.5V39.4c0-1.5,0.5-2.6,1.4-3.4c0.9-0.8,2.1-1.2,3.5-1.2s2.5,0.4,3.3,1.2c0.8,0.8,1.3,1.9,1.3,3.3v3.2
			c1-2.3,2.5-4.1,4.5-5.4c2-1.3,4.2-2,6.6-2.1l1.1-0.1C396.9,34.7,398,35,398.8,35.7z"/>
	</g>
	
		<linearGradient id="rect1349-8_1_" gradientUnits="userSpaceOnUse" x1="-30.068" y1="475.4377" x2="431.0383" y2="462.6717" gradientTransform="matrix(12.5345 0 0 -12.5345 2317.1289 6058.4893)">
		<stop  offset="0" style="stop-color:#640FFF"/>
		<stop  offset="1" style="stop-color:#2EC8FF"/>
	</linearGradient>
	<path id="rect1349-8" inkscape:connector-curvature="0" class="st9" d="M35.7,0c-5,0-9.7,2.8-12.1,7.5L1.5,51.5
		c-3.4,6.7-0.7,14.9,6,18.3l44,22.1c6.8,3.4,14.9,0.7,18.3-6L92,41.9c3.4-6.7,0.7-14.9-6-18.3l-16.6-8.3v30.5v0l0,0
		c0,12.5-10.1,22.6-22.6,22.6c-12.5,0-22.6-10.1-22.6-22.6s10.1-22.6,22.6-22.6c2.6,0,5.2,0.5,7.5,1.3V7.7L42,1.5
		C39.9,0.5,37.8,0,35.7,0L35.7,0z M46.8,38.3c-4.2,0-7.5,3.4-7.5,7.5c0,4.2,3.4,7.5,7.5,7.5c4.2,0,7.5-3.4,7.5-7.5
		C54.3,41.7,50.9,38.3,46.8,38.3z"/>
</g>
</svg>
