<?xml version="1.0" encoding="utf-8"?>
<!-- Generator: Adobe Illustrator 24.1.2, SVG Export Plug-In . SVG Version: 6.00 Build 0)  -->
<svg version="1.1"
	 id="svg3121" xmlns:cc="http://creativecommons.org/ns#" xmlns:dc="http://purl.org/dc/elements/1.1/" xmlns:inkscape="http://www.inkscape.org/namespaces/inkscape" xmlns:rdf="http://www.w3.org/1999/02/22-rdf-syntax-ns#" xmlns:sodipodi="http://sodipodi.sourceforge.net/DTD/sodipodi-0.dtd" xmlns:svg="http://www.w3.org/2000/svg"
	 xmlns="http://www.w3.org/2000/svg" xmlns:xlink="http://www.w3.org/1999/xlink" x="0px" y="0px" viewBox="0 0 500 500"
	 style="enable-background:new 0 0 500 500;" xml:space="preserve">
<style type="text/css">
	.st0{enable-background:new    ;}
	.st1{fill:#FFFFFF;}
</style>
<g>
	
		<sodipodi:namedview  bordercolor="#666666" borderopacity="1.0" id="base" inkscape:current-layer="layer1" inkscape:cx="-560.57896" inkscape:cy="289.70954" inkscape:document-units="mm" inkscape:pageopacity="0.0" inkscape:pageshadow="2" inkscape:window-height="1016" inkscape:window-maximized="1" inkscape:window-width="1920" inkscape:window-x="0" inkscape:window-y="0" inkscape:zoom="0.414" pagecolor="#ffffff" showgrid="false" units="px">
		</sodipodi:namedview>
	<g class="st0">
		<path class="st1" d="M91.2,497.9c-1-0.9-1.4-2.2-1.4-3.9V443c0-1.7,0.5-3,1.4-3.9c1-0.9,2.3-1.4,4-1.4h17.3
			c10.1,0,17.9,2.7,23.5,8.1c5.6,5.4,8.4,12.9,8.4,22.7c0,9.8-2.8,17.4-8.4,22.8c-5.6,5.4-13.4,8.1-23.5,8.1H95.2
			C93.5,499.3,92.2,498.8,91.2,497.9z M133.1,468.5c0-14.4-7.1-21.6-21.3-21.6h-10.8v43.3h10.8C126,490.1,133.1,482.9,133.1,468.5z"
			/>
		<path class="st1" d="M182.3,456.7c0.9,0.8,1.3,1.9,1.3,3.4c0,1.6-0.4,2.7-1.1,3.5c-0.8,0.8-2.1,1.3-4.1,1.5l-2.6,0.3
			c-3.4,0.3-6,1.5-7.6,3.5c-1.6,2-2.4,4.5-2.4,7.4v18.3c0,1.7-0.5,3-1.6,3.9c-1,0.9-2.4,1.4-3.9,1.4c-1.6,0-2.9-0.5-3.9-1.4
			c-1-0.9-1.5-2.2-1.5-3.9v-33.8c0-1.6,0.5-2.9,1.5-3.8c1-0.9,2.3-1.3,3.8-1.3c1.5,0,2.7,0.4,3.7,1.3c0.9,0.8,1.4,2.1,1.4,3.6v3.5
			c1.1-2.6,2.8-4.5,4.9-5.9c2.2-1.4,4.6-2.2,7.3-2.4l1.2-0.1C180.2,455.6,181.4,455.9,182.3,456.7z"/>
		<path class="st1" d="M219.9,459.9c2.9,2.9,4.3,7.4,4.3,13.4v21.3c0,1.6-0.5,2.8-1.4,3.7c-0.9,0.9-2.2,1.4-3.8,1.4
			c-1.5,0-2.8-0.5-3.7-1.4c-1-0.9-1.4-2.2-1.4-3.7v-1.9c-1,2.3-2.6,4-4.7,5.3c-2.1,1.3-4.6,1.9-7.4,1.9c-2.9,0-5.5-0.6-7.8-1.7
			c-2.3-1.2-4.2-2.8-5.5-4.8c-1.3-2-2-4.3-2-6.8c0-3.1,0.8-5.6,2.4-7.4c1.6-1.8,4.2-3.1,7.8-3.9c3.6-0.8,8.6-1.2,15-1.2h2.2v-2
			c0-2.9-0.6-4.9-1.8-6.2s-3.2-2-5.9-2c-1.7,0-3.4,0.2-5.2,0.7c-1.7,0.5-3.8,1.2-6.2,2.1c-1.5,0.8-2.6,1.1-3.3,1.1
			c-1,0-1.9-0.4-2.6-1.1c-0.7-0.8-1-1.7-1-3c0-1,0.2-1.8,0.7-2.6c0.5-0.7,1.3-1.4,2.5-2.1c2-1.1,4.5-2,7.3-2.6c2.8-0.6,5.6-1,8.4-1
			C212.6,455.5,217,457,219.9,459.9z M211.1,489.2c1.8-2,2.8-4.5,2.8-7.6v-1.8h-1.6c-3.9,0-6.9,0.2-9.1,0.5c-2.2,0.3-3.7,1-4.6,1.8
			c-0.9,0.9-1.4,2.1-1.4,3.6c0,1.9,0.7,3.4,2,4.6c1.3,1.2,2.9,1.8,4.9,1.8C206.9,492.1,209.3,491.2,211.1,489.2z"/>
		<path class="st1" d="M251.1,448.3c-1.2,1.5-1.8,3.6-1.8,6.3v2h7.4c3.3,0,4.9,1.4,4.9,4.1c0,2.7-1.6,4.1-4.9,4.1h-7.4v29.8
			c0,1.7-0.5,3-1.5,3.8c-1,0.9-2.3,1.3-3.9,1.3s-2.9-0.4-3.9-1.3c-1-0.9-1.6-2.2-1.6-3.8v-29.8H234c-3.3,0-4.9-1.4-4.9-4.1
			c0-2.7,1.6-4.1,4.9-4.1h4.4V456c0-5.5,1.4-9.8,4.3-12.9c2.9-3.1,7-4.9,12.2-5.3l2.3-0.2c2.3-0.2,4,0.1,4.9,0.7
			c1,0.7,1.4,1.7,1.4,3.1c0,2.5-1.4,3.9-4.3,4.2l-2.3,0.2C254.3,446,252.3,446.8,251.1,448.3z"/>
		<path class="st1" d="M295.8,495.6c0,1.4-0.6,2.5-1.7,3.2c-1.1,0.7-2.8,1-4.9,0.9l-2.4-0.2c-9.8-0.7-14.7-5.9-14.7-15.7v-19h-4.4
			c-1.6,0-2.8-0.3-3.6-1c-0.8-0.7-1.3-1.7-1.3-3.1s0.4-2.4,1.3-3.1c0.8-0.7,2.1-1,3.6-1h4.4v-8c0-1.6,0.5-2.8,1.5-3.8
			c1-0.9,2.3-1.4,4-1.4c1.6,0,2.9,0.5,3.9,1.4c1,0.9,1.5,2.2,1.5,3.8v8h7.4c1.6,0,2.8,0.3,3.6,1c0.8,0.7,1.3,1.7,1.3,3.1
			s-0.4,2.4-1.3,3.1c-0.8,0.7-2.1,1-3.6,1h-7.4v19.8c0,4.3,2,6.6,5.9,6.9l2.4,0.2C294.3,491.9,295.8,493.2,295.8,495.6z"/>
		<path class="st1" d="M337.7,488.7c0.6,0.8,0.9,1.8,0.9,3.1c0,1.8-1.1,3.3-3.2,4.5c-2,1.1-4.2,2-6.7,2.7c-2.5,0.7-4.9,1-7.2,1
			c-6.9,0-12.3-2-16.4-5.9c-4-4-6-9.4-6-16.3c0-4.4,0.9-8.2,2.6-11.6c1.7-3.4,4.2-6,7.4-7.9c3.2-1.9,6.8-2.8,10.8-2.8
			c3.8,0,7.2,0.8,10.1,2.5c2.9,1.7,5.1,4.1,6.6,7.2c1.6,3.1,2.4,6.7,2.4,10.9c0,2.5-1.1,3.8-3.3,3.8h-25.8c0.3,4,1.5,7,3.4,8.9
			c1.9,1.9,4.7,2.8,8.4,2.8c1.9,0,3.5-0.2,4.9-0.7c1.4-0.5,3-1.1,4.9-1.9c1.7-0.9,3-1.4,3.8-1.4C336.3,487.6,337.1,488,337.7,488.7z
			 M313.1,466c-1.8,1.9-2.8,4.5-3.2,8h19.8c-0.1-3.6-1-6.2-2.6-8.1c-1.6-1.8-3.9-2.8-6.8-2.8C317.2,463.2,314.8,464.1,313.1,466z"/>
		<path class="st1" d="M375.4,456.7c0.9,0.8,1.3,1.9,1.3,3.4c0,1.6-0.4,2.7-1.1,3.5c-0.8,0.8-2.1,1.3-4.1,1.5l-2.6,0.3
			c-3.4,0.3-6,1.5-7.6,3.5c-1.6,2-2.4,4.5-2.4,7.4v18.3c0,1.7-0.5,3-1.6,3.9c-1,0.9-2.4,1.4-3.9,1.4c-1.6,0-2.9-0.5-3.9-1.4
			c-1-0.9-1.5-2.2-1.5-3.9v-33.8c0-1.6,0.5-2.9,1.5-3.8c1-0.9,2.3-1.3,3.8-1.3c1.5,0,2.7,0.4,3.7,1.3c0.9,0.8,1.4,2.1,1.4,3.6v3.5
			c1.1-2.6,2.8-4.5,4.9-5.9c2.2-1.4,4.6-2.2,7.3-2.4l1.2-0.1C373.3,455.6,374.5,455.9,375.4,456.7z"/>
		<path class="st1" d="M408.9,456.7c0.9,0.8,1.3,1.9,1.3,3.4c0,1.6-0.4,2.7-1.1,3.5c-0.8,0.8-2.1,1.3-4.1,1.5l-2.6,0.3
			c-3.4,0.3-6,1.5-7.6,3.5c-1.6,2-2.4,4.5-2.4,7.4v18.3c0,1.7-0.5,3-1.6,3.9c-1,0.9-2.4,1.4-3.9,1.4c-1.6,0-2.9-0.5-3.9-1.4
			c-1-0.9-1.5-2.2-1.5-3.9v-33.8c0-1.6,0.5-2.9,1.5-3.8c1-0.9,2.3-1.3,3.8-1.3c1.5,0,2.7,0.4,3.7,1.3c0.9,0.8,1.4,2.1,1.4,3.6v3.5
			c1.1-2.6,2.8-4.5,4.9-5.9c2.2-1.4,4.6-2.2,7.3-2.4l1.2-0.1C406.8,455.6,408,455.9,408.9,456.7z"/>
	</g>
	<path id="rect1349-8" inkscape:connector-curvature="0" class="st1" d="M205.3,0c-20.1,0.1-39.4,11.2-49.1,30.5l-90,178.4
		c-13.8,27.4-2.9,60.5,24.6,74.3l178.6,89.9c27.4,13.8,60.6,2.8,74.4-24.5l90-178.4c13.8-27.4,2.9-60.5-24.6-74.3L342,62v123.9v0.1
		l0,0c-0.1,50.8-41,91.7-92,91.7c-50.9,0-92-41-92-91.9s41-91.9,92-91.9c10.8,0,21.1,1.8,30.7,5.2V31.1L230.6,6
		C222.5,1.9,213.8,0,205.3,0L205.3,0z M250.1,155.4c-17,0-30.7,13.7-30.7,30.6c0,17,13.7,30.6,30.7,30.6c17,0,30.7-13.7,30.7-30.6
		C280.8,169.1,267.1,155.4,250.1,155.4z"/>
</g>
</svg>
